<svg width="71" height="80" viewBox="0 0 71 80" fill="none" xmlns="http://www.w3.org/2000/svg">
<path d="M25.8506 30.2917V22.7159L36.7816 33.6485C37.1561 34.0173 37.5996 34.3086 38.0867 34.5059C38.5739 34.7031 39.0951 34.8024 39.6206 34.7981C40.4218 34.8028 41.2062 34.5682 41.8732 34.1242C42.5401 33.6803 43.0594 33.0473 43.3644 32.3063C43.6694 31.5653 43.7462 30.7501 43.5851 29.9652C43.4239 29.1803 43.032 28.4614 42.4597 27.9006L25.8506 11.2775V3.9546C25.8506 2.88748 25.4267 1.86406 24.6722 1.10949C23.9178 0.354929 22.8945 -0.0689697 21.8276 -0.0689697C20.7606 -0.0689697 19.7373 0.354929 18.9829 1.10949C18.2284 1.86406 17.8046 2.88748 17.8046 3.9546V13.0479V30.2917L1.18386 46.9033C0.800147 47.2771 0.495195 47.724 0.286959 48.2176C0.0787239 48.7112 -0.0285645 49.2416 -0.0285645 49.7773C-0.0285645 50.313 0.0787239 50.8433 0.286959 51.3369C0.495195 51.8305 0.800147 52.2774 1.18386 52.6513C1.55763 53.035 2.00448 53.34 2.49801 53.5483C2.99154 53.7566 3.52176 53.8639 4.05742 53.8639C4.59309 53.8639 5.12334 53.7566 5.61687 53.5483C6.1104 53.34 6.55722 53.035 6.93099 52.6513L21.8735 37.7066L36.816 52.6513C37.189 53.0221 37.6323 53.3148 38.1198 53.5122C38.6073 53.7096 39.1292 53.8077 39.6551 53.8009C40.4563 53.8056 41.2406 53.5709 41.9076 53.127C42.5746 52.683 43.0939 52.05 43.3989 51.309C43.7039 50.568 43.7807 49.7529 43.6195 48.9679C43.4584 48.183 43.0665 47.4641 42.4942 46.9033L25.8506 30.2917Z" fill="#333333"/>
<path d="M69.8277 73.1369L53.207 56.5139V30.2917C53.207 29.2246 52.7831 28.2012 52.0287 27.4466C51.2742 26.6921 50.2509 26.2682 49.184 26.2682C48.117 26.2682 47.0937 26.6921 46.3393 27.4466C45.5848 28.2012 45.161 29.2246 45.161 30.2917V56.5713L28.5403 73.1945C27.7782 73.9491 27.347 74.9755 27.3416 76.0481C27.3362 77.1206 27.7571 78.1514 28.5115 78.9137C29.266 79.6759 30.2924 80.1071 31.3648 80.1125C32.4372 80.1179 33.4678 79.697 34.2299 78.9424L49.1725 63.9977L64.115 78.9424C64.8771 79.697 65.9077 80.1179 66.9802 80.1125C68.0526 80.1071 69.0789 79.6759 69.8334 78.9137C70.5879 78.1514 71.0087 77.1206 71.0033 76.0481C70.998 74.9755 70.5668 73.9491 69.8047 73.1945L69.8277 73.1369Z" fill="#297DFC"/>
</svg>
