<svg width="88" height="75" viewBox="0 0 88 75" fill="none" xmlns="http://www.w3.org/2000/svg">
<g clip-path="url(#clip0_332_95)">
<path d="M38.371 2.19404L34.9938 5.61869C32.1091 8.54399 32.1091 13.2868 34.9938 16.2121L38.371 19.6368C41.2557 22.5621 45.9328 22.5621 48.8175 19.6368L52.1947 16.2121C55.0795 13.2868 55.0795 8.54399 52.1947 5.61869L48.8175 2.19404C45.9328 -0.731255 41.2557 -0.731255 38.371 2.19404Z" fill="#297DFC"/>
<path d="M16.8796 47.4252C13.4626 47.4252 10.0457 46.1057 7.44341 43.4683L3.90769 39.8829C1.38742 37.3272 0 33.9282 0 30.3141C0 26.7 1.38742 23.301 3.90769 20.7453L7.44341 17.1599C9.96368 14.6042 13.3141 13.1958 16.8796 13.1958C20.445 13.1958 23.7954 14.6042 26.3157 17.1599L29.8514 20.7453C32.3717 23.301 33.7605 26.7 33.7605 30.3141C33.7605 33.9282 32.3731 37.3272 29.8514 39.8829L26.3157 43.4683C23.7134 46.1072 20.2965 47.4252 16.8796 47.4252ZM16.8796 20.6162C15.3352 20.6162 13.7908 21.2128 12.6141 22.4046L9.07833 25.99C7.93983 27.1446 7.31188 28.6805 7.31188 30.3155C7.31188 31.9505 7.93983 33.485 9.07833 34.641L12.6141 38.2264C13.754 39.3823 15.2673 40.0177 16.8796 40.0177C18.4919 40.0177 20.0051 39.3809 21.1451 38.2264L24.6808 34.641C25.8207 33.485 26.4472 31.949 26.4472 30.3155C26.4472 28.682 25.8193 27.146 24.6808 25.99L21.1451 22.4046C19.9698 21.2128 18.424 20.6162 16.8796 20.6162Z" fill="#303137"/>
<path d="M44.0578 74.9999C40.4994 74.9999 37.1532 73.5944 34.6372 71.043L31.0703 67.4261C25.8756 62.1584 25.8756 53.5878 31.0703 48.32L61.6968 17.2645C64.2128 14.7131 67.559 13.3076 71.1174 13.3076C74.6757 13.3076 78.022 14.7131 80.538 17.2645L84.1048 20.8815C89.2981 26.1492 89.2981 34.7198 84.1048 39.9861L53.4784 71.043C50.9623 73.5944 47.6161 74.9999 44.0578 74.9999ZM71.1174 20.7237C69.5122 20.7237 68.0031 21.3576 66.8689 22.5093L36.2424 53.5662C33.8989 55.9427 33.8989 59.8092 36.2424 62.1856L39.8092 65.8026C40.9449 66.9542 42.454 67.5881 44.0592 67.5881C45.6644 67.5881 47.1735 66.9542 48.3077 65.8026L78.9342 34.7456C81.2777 32.3692 81.2777 28.5027 78.9342 26.1277L75.3673 22.5107C74.2317 21.3591 72.7226 20.7252 71.1188 20.7252L71.1174 20.7237Z" fill="#303137"/>
</g>
<defs>
<clipPath id="clip0_332_95">
<rect width="88" height="75" fill="white"/>
</clipPath>
</defs>
</svg>
