<svg xmlns="http://www.w3.org/2000/svg" viewBox="0 0 446.06 435.26"><defs><style>.cls-1{fill:#333;}</style></defs><g id="레이어_2" data-name="레이어 2"><g id="레이어_1-2" data-name="레이어 1"><g id="Z78oyV.tif"><path class="cls-1" d="M291.85,435.26h-5.23c-6.28-2.7-8.17-7.61-8.16-14.23,0-22.78,0-45.58-.68-68.35a44.06,44.06,0,0,0-10.65-27.51c-1-1.17-2-2.29-3.28-3.72,1.14-.2,1.69-.31,2.25-.39,15.84-2.14,31.48-4.94,46.09-12,15.88-7.66,29.61-17.67,38.38-33.45,8.39-15.1,12.39-31.42,14-48.5,2.6-27.18-1.7-52.35-20.41-73.61a5,5,0,0,1-.95-4.11c5.55-15.83,4.77-31.61.12-47.47-3.14-10.7-4.94-11.88-15.85-9.66-.29.06-.56.15-.84.22C310.9,96.56,296.6,103.83,283,112.63a10.2,10.2,0,0,1-8.89,1.54,205.9,205.9,0,0,0-102.06-.07,11.31,11.31,0,0,1-8.94-1.31c-10.69-5.75-21.51-11.33-32.53-16.42-6.84-3.15-14.15-5.37-21.9-4.39-1.29.16-3.15,1.17-3.55,2.23-6.6,17.54-9,35.39-2.71,53.56,1,2.86.57,4.68-1.38,6.9a80.39,80.39,0,0,0-17.82,34.88c-3.39,14.21-2.9,28.54-1.23,42.84,2,17.18,6.77,33.61,16.51,48.09,13.67,20.3,34.12,30.41,57,36.23,8.49,2.15,17.24,3.31,26.42,5-7.91,7.81-11.78,17.31-13.6,27.79a3.37,3.37,0,0,1-1.67,2.22c-12.81,5.19-26,7.63-39.42,3-10.3-3.54-17.49-11.18-22.9-20.45a51.14,51.14,0,0,0-21.82-20.62c-6.21-3.09-12.73-5-19.73-3.21-4,1-4.75,2.69-2.3,5.79,2.2,2.79,5.09,5.05,7.74,7.48,4,3.7,9,6.76,12,11.14A130.5,130.5,0,0,1,92.72,357.2c5.87,13.51,16,21.53,29.94,24.76a104.17,104.17,0,0,0,37.22,1.72c2.38-.31,4.76-.72,8-1.23,0,13.14-.17,25.74.07,38.34.13,6.78-2,11.83-8.52,14.47H154.2c-17.15-5.93-33.92-12.84-49.12-22.78-54.75-35.8-89.49-85.33-101.55-150C1.84,253.37,1.15,244.11,0,234.93V208.8c.65-5.44,1.2-10.89,2-16.31a219.57,219.57,0,0,1,26.64-79q34.77-61,97.89-91.71C156.59,7,188.58.18,222,0c30.52-.16,60.1,5.23,88.15,17.46C359.84,39.12,397.45,74,422.19,122.33c22.22,43.43,28.23,89.54,20.9,137.46a207.43,207.43,0,0,1-28.28,77.07c-16.66,27.35-37.72,50.64-64,69.11C332.62,418.74,312.75,428,291.85,435.26Z"/></g></g></g></svg>