<svg width="88" height="46" viewBox="0 0 88 46" fill="none" xmlns="http://www.w3.org/2000/svg">
<rect x="27.2676" width="60.7293" height="20.2431" rx="10.1216" fill="#94BEFE"/>
<rect x="67.7539" y="25.3038" width="20.2431" height="20.2431" rx="10.1216" fill="#297DFC"/>
<path fill-rule="evenodd" clip-rule="evenodd" d="M17.6519 5.12158C7.90306 5.12158 0 13.0246 0 22.7735C0 32.5224 7.90305 40.4255 17.6519 40.4255H60.1625C62.9239 40.4255 65.1625 38.1869 65.1625 35.4255C65.1625 32.664 62.9239 30.4255 60.1625 30.4255H17.6519C13.4259 30.4255 10 26.9996 10 22.7735C10 18.5475 13.4259 15.1216 17.6519 15.1216H19.6763C22.4377 15.1216 24.6763 12.883 24.6763 10.1216C24.6763 7.36016 22.4377 5.12158 19.6763 5.12158H17.6519Z" fill="#303137"/>
</svg>
